<svg width="231" height="321" viewBox="0 0 231 321" fill="none" xmlns="http://www.w3.org/2000/svg">
<g filter="url(#filter0_d)">
<path d="M36.791 209L23.543 186.896C22.199 186.992 21.143 187.04 20.375 187.04H11.519V209H8.06297V160.328H18.503C23.351 160.328 27.023 160.712 29.519 161.48C34.943 163.16 37.655 167.024 37.655 173.072C37.655 176.48 36.719 179.312 34.847 181.568C32.975 183.824 30.335 185.384 26.927 186.248L40.823 209H36.791ZM11.519 183.872H19.583C23.951 183.872 27.191 183.272 29.303 182.072C30.695 181.304 31.775 180.152 32.543 178.616C33.359 177.032 33.767 175.256 33.767 173.288C33.767 168.776 31.871 165.848 28.079 164.504C26.303 163.832 23.087 163.496 18.431 163.496H11.519V183.872ZM67.328 209H63.656L83.816 160.328H87.488L107.144 209H103.4L96.848 193.088H74.024L67.328 209ZM75.32 189.92H95.624L85.616 164.36C83.936 168.872 80.504 177.392 75.32 189.92ZM146.809 209H143.281V163.64H126.649V160.328H163.369V163.64H146.809V209ZM224.451 209H194.715V160.328H223.155V163.64H198.171V182H221.571V185.312H198.171V205.688H224.451V209ZM66.3121 295C66.8881 275.92 67.2481 263.824 67.3201 258.784C68.6161 262.528 72.2881 271.888 78.3361 286.864H85.8241C91.1521 273.976 94.8241 264.616 96.8401 258.712C96.8401 263.608 97.2001 275.704 97.9201 295H108.072L106.488 246.328H93.0961C87.4801 259.936 84.0241 268.72 82.5841 272.68C81.2881 268.864 77.7601 260.08 72.1441 246.328H58.1761L56.5201 295H66.3121ZM173.921 295V286.144H150.161V274.408H169.889V265.48H150.161V255.328H172.265V246.328H140.009V295H173.921Z" fill="#343435"/>
</g>
<path fill-rule="evenodd" clip-rule="evenodd" d="M114 128C149.346 128 178 99.3462 178 64C178 28.6538 149.346 0 114 0C78.6538 0 50 28.6538 50 64C50 99.3462 78.6538 128 114 128ZM134.561 55.8914C134.561 67.247 125.356 76.4525 114 76.4525C102.644 76.4525 93.4389 67.247 93.4389 55.8914C93.4389 44.5358 102.644 35.3303 114 35.3303C125.356 35.3303 134.561 44.5358 134.561 55.8914ZM81.3538 111.77C84.453 96.2534 98.1506 84.5611 114.579 84.5611C130.501 84.5611 143.857 95.543 147.488 110.345C137.981 117.433 126.191 121.629 113.421 121.629C101.532 121.629 90.4922 117.992 81.3538 111.77Z" fill="#343435"/>
<defs>
<filter id="filter0_d" x="6.06299" y="158.328" width="224.388" height="142.672" filterUnits="userSpaceOnUse" color-interpolation-filters="sRGB">
<feFlood flood-opacity="0" result="BackgroundImageFix"/>
<feColorMatrix in="SourceAlpha" type="matrix" values="0 0 0 0 0 0 0 0 0 0 0 0 0 0 0 0 0 0 127 0"/>
<feOffset dx="2" dy="2"/>
<feGaussianBlur stdDeviation="2"/>
<feColorMatrix type="matrix" values="0 0 0 0 0 0 0 0 0 0 0 0 0 0 0 0 0 0 0.25 0"/>
<feBlend mode="normal" in2="BackgroundImageFix" result="effect1_dropShadow"/>
<feBlend mode="normal" in="SourceGraphic" in2="effect1_dropShadow" result="shape"/>
</filter>
</defs>
</svg>
